<svg width="99.8453" height="43.041" viewBox="0 0 99.8453 43.041" fill="none" xmlns="http://www.w3.org/2000/svg">
<g id="Vector">
<path d="M41.9644 0C42.7353 1.69105e-05 43.3942 0.436866 43.6691 1.05615C45.3518 4.40466 44.7855 8.41612 42.3029 13.2063C40.818 16.0714 38.7641 19.0701 35.8101 22.7849C35.2344 23.5088 30.9719 28.8325 30.9718 33.1868C30.9718 35.8989 33.6792 40.1147 39.7408 39.2944C40.9582 39.1297 41.1326 39.0553 44.6402 38.5071C45.6311 38.3522 46.353 38.2416 47.0673 38.1365C57.804 36.5561 63.3599 36.9648 63.5832 39.408C63.6876 40.5516 63.1141 41.0881 63.0825 41.0713C59.4877 38.9895 54.2265 38.4586 47.2993 39.4783C46.5907 39.5826 45.8732 39.6925 44.8866 39.8467C41.3629 40.3974 41.2112 40.421 39.9776 40.5879C35.7278 41.163 31.8967 40.5873 29.438 37.2905C27.0925 34.1454 27.5817 30.4271 31.3382 25.9753C41.4532 13.9884 43.1285 7.89284 40.3257 2.47412L40.3241 2.46973C40.1956 2.23815 40.1215 1.97644 40.1214 1.69849C40.1214 0.760594 40.9467 0 41.9644 0Z" fill="var(--fill-0, #0072FF)"/>
<path d="M21.9104 15.5867C24.6843 15.5867 26.2584 17.2982 25.8777 18.7046C24.6277 17.3213 22.6504 16.7456 20.8487 17.094C19.0469 17.4425 18.1432 18.3079 17.2407 19.5864C16.338 20.865 14.5512 23.0544 12.319 23.0544C13.4873 22.6411 14.414 21.8446 15.1299 20.9788C14.5124 20.3177 13.5614 19.7674 12.2705 19.7673C11.5422 19.7673 10.1298 19.9888 9.21637 21.3977C8.30294 22.8065 7.14228 24.4474 4.94554 24.4475C5.70562 24.1786 6.30002 23.8615 6.78373 23.4543C6.48235 23.0246 5.97356 22.4875 4.93124 22.4875C4.01997 22.4876 3.2564 23.0267 2.94444 23.7817C2.55871 24.7154 1.48848 25.8062 0 25.8062C0.782279 25.5733 1.71925 25.1645 2.20535 23.759C2.69142 22.3536 3.73844 21.6717 4.93124 21.6716C6.16624 21.6716 7.04181 22.3757 7.22957 23.0171C7.63859 22.5529 7.95873 21.9886 8.23807 21.2812C8.89561 19.6162 10.4281 18.6526 12.2387 18.6526C13.8894 18.6526 15.2594 19.3272 15.5821 20.3862C15.9995 19.7939 16.3258 19.2026 16.5651 18.7046C17.241 17.2983 19.1368 15.5868 21.9104 15.5867Z" fill="var(--fill-0, #0072FF)"/>
<path d="M42.8091 28.5754C42.7862 28.0656 42.8321 27.5737 42.9466 27.0998C43.0606 26.62 43.2301 26.1535 43.4551 25.7001C43.6796 25.2409 43.9509 24.8043 44.269 24.3905C44.5929 23.9703 44.95 23.5974 45.3403 23.2718C46.1867 22.5743 47.0722 22.1882 47.9969 22.1136C49.08 22.0263 49.8411 22.3796 50.2802 23.1735C50.4335 23.4435 50.5252 23.7713 50.5555 24.1571C50.5852 24.537 50.5395 24.8965 50.4185 25.2357C50.297 25.569 50.1128 25.8808 49.866 26.1713C49.6249 26.4554 49.3275 26.7176 48.9738 26.9579C48.6264 27.1976 48.2411 27.4081 47.8179 27.5893C46.9463 27.9536 45.998 28.183 44.973 28.2774C44.9555 28.3612 44.9513 28.485 44.9604 28.649C44.9696 28.8129 45.0061 28.9953 45.0698 29.196C45.133 29.3909 45.2259 29.5628 45.3485 29.7117C45.6098 30.0435 45.9557 30.1921 46.3864 30.1574C47.1211 30.0981 47.818 29.842 48.477 29.3889C48.7112 29.2347 48.8977 29.0814 49.0364 28.9291C49.1809 28.7704 49.3102 28.6865 49.4242 28.6773C49.5382 28.6681 49.6424 28.7244 49.737 28.8461C49.8373 28.9616 49.8949 29.0981 49.9099 29.2557C49.9392 29.5651 49.8697 29.8412 49.7013 30.0842C48.9731 30.884 47.8205 31.3475 46.2434 31.4747C45.3124 31.5497 44.5407 31.3532 43.9282 30.8849C43.2394 30.3523 42.8664 29.5825 42.8091 28.5754ZM47.8985 23.295C47.2335 23.3486 46.6337 23.8204 46.0991 24.7105C45.6485 25.4762 45.3119 26.3679 45.0894 27.3858C46.1377 27.2013 47.0195 26.742 47.7348 26.0079C48.3907 25.3198 48.6912 24.6868 48.6363 24.1089C48.5814 23.531 48.3355 23.2597 47.8985 23.295Z" fill="var(--fill-0, #0072FF)"/>
<path d="M54.0156 32.7007C54.004 32.5782 54.082 32.3248 54.2498 31.9408C54.4118 31.563 54.5831 31.0816 54.7637 30.4965C54.9506 29.9109 55.1226 29.303 55.2798 28.6727C55.4369 28.0425 55.5931 27.3682 55.7483 26.6499L56.2699 24.2786L55.3051 24.6035C55.0581 24.6234 54.8441 24.5201 54.663 24.2935C54.6189 24.2324 54.5927 24.158 54.5844 24.0704C54.5761 23.9829 54.6424 23.8746 54.7833 23.7456C54.9237 23.6108 55.0997 23.4819 55.3114 23.359C55.7348 23.1131 56.1756 22.9158 56.6338 22.7671L56.696 22.515C56.8205 22.0109 56.9338 21.4901 57.0359 20.9525C57.1438 20.4086 57.2594 19.8787 57.3828 19.3629C57.5125 18.8466 57.6668 18.3548 57.8458 17.8875C58.0243 17.4143 58.2463 16.9965 58.5118 16.6339C59.1007 15.8453 59.8923 15.411 60.8867 15.3308C61.6214 15.2715 62.2212 15.4055 62.6863 15.7327C63.1513 16.0598 63.4132 16.5328 63.4719 17.1515C63.5329 17.7936 63.3863 18.3671 63.0322 18.8721C62.7336 19.2903 62.3785 19.5159 61.9668 19.5491C61.4538 19.5905 61.085 19.4026 60.8603 18.9855C60.7991 18.8787 60.7649 18.7873 60.7577 18.7114C60.7455 18.583 60.8294 18.4586 61.0094 18.3382C61.3345 18.065 61.5473 17.7184 61.6479 17.2986C61.68 17.1666 61.6903 17.0393 61.6786 16.9168C61.6332 16.4381 61.4078 16.2151 61.0025 16.2478C60.4451 16.2928 59.9872 16.9149 59.6288 18.1143C59.5233 18.4816 59.4211 18.8839 59.3222 19.3212L58.6943 22.1863C59.2629 22.0581 59.677 21.9835 59.9367 21.9626C60.2027 21.9411 60.4398 21.9514 60.648 21.9935C60.8557 22.0297 61.0466 22.0907 61.2207 22.1767C61.616 22.3742 61.8294 22.6393 61.861 22.972C61.8926 23.3047 61.731 23.4854 61.3763 23.514L60.1656 23.5675C59.5069 23.6206 58.9014 23.6959 58.349 23.7934L57.8111 26.3953C57.4615 28.1586 57.1623 29.4444 56.9136 30.2526C56.6712 31.0603 56.4237 31.7478 56.1712 32.3152C55.9333 32.8343 55.523 33.1174 54.9403 33.1644C54.3576 33.2113 54.0494 33.0568 54.0156 32.7007Z" fill="var(--fill-0, #0072FF)"/>
<path d="M70.5989 27.1111C70.7826 27.0963 70.8852 27.2027 70.9069 27.4304C70.9251 27.623 70.8795 27.8149 70.77 28.006C70.6312 28.3584 70.3196 28.707 69.8354 29.0519C69.2854 29.4433 68.7159 29.6627 68.1269 29.7102C67.1072 29.7924 66.4213 29.4242 66.0691 28.6056C65.6514 27.6335 65.935 25.4785 66.9201 22.1406C66.1862 22.141 65.7793 22.0562 65.6993 21.8861C65.6753 21.8351 65.6606 21.7805 65.655 21.7221C65.6489 21.6579 65.6705 21.5826 65.7197 21.4963C65.7753 21.4095 65.847 21.3243 65.9348 21.2407C66.1404 21.0536 66.3572 20.9508 66.5852 20.9324L67.3358 20.8719C67.8796 19.34 68.2875 18.4601 68.5594 18.2323C68.6899 18.1277 68.8406 18.0685 69.0117 18.0547C69.1827 18.0409 69.3271 18.0499 69.445 18.0815C69.5629 18.1132 69.6697 18.1634 69.7656 18.2321C69.9849 18.3909 70.1048 18.5783 70.1253 18.7943C70.1364 18.911 70.1111 19.0483 70.0496 19.2062L69.4803 20.6725L69.7083 20.6542C70.101 20.6225 70.4174 20.594 70.6576 20.5688C70.6576 20.5688 70.8378 20.5513 71.1982 20.5164C71.318 20.5008 71.4666 20.4859 71.6439 20.4716C71.8276 20.4568 71.9253 20.5107 71.9369 20.6333C72.01 21.4038 71.0586 21.8687 69.0825 22.028L69.0065 22.0341L68.5068 23.6272C67.9513 25.5071 67.7082 26.8119 67.7774 27.5415C67.7968 27.7458 67.8627 27.9023 67.9752 28.0108C68.087 28.1136 68.2823 28.1537 68.561 28.1312C68.8397 28.1088 69.0888 28.0445 69.3085 27.9386C69.5282 27.8327 69.7186 27.7203 69.8796 27.6014C70.0401 27.4767 70.1764 27.3657 70.2884 27.2685C70.4067 27.1707 70.5103 27.1183 70.5989 27.1111Z" fill="var(--fill-0, #0072FF)"/>
<path d="M74.9041 28.2197C74.8098 28.0332 74.751 27.8174 74.7277 27.5722C74.7039 27.3212 74.7219 27.0404 74.7818 26.7297C74.8474 26.4127 74.9373 26.082 75.0513 25.7375C75.1654 25.393 75.2914 25.0388 75.4291 24.6748L75.8424 23.5828C76.3731 22.1813 76.541 21.3619 76.3462 21.1247C76.2597 21.02 76.1066 20.9205 75.8871 20.8265C75.8072 20.7918 75.7626 20.7248 75.7531 20.6255C75.7432 20.5205 75.7781 20.4177 75.8579 20.3171C75.944 20.2161 76.0566 20.1247 76.1956 20.0429C76.4932 19.8836 76.7972 19.7914 77.1075 19.7664C77.4179 19.7414 77.6553 19.7546 77.8197 19.806C77.9899 19.8511 78.1301 19.9163 78.2403 20.0015C78.4676 20.1773 78.5923 20.3819 78.6145 20.6154C78.6367 20.8489 78.6204 21.1149 78.5658 21.4134C78.5106 21.706 78.4326 22.027 78.3317 22.3763C78.2309 22.7255 78.1184 23.0875 77.9945 23.4622C77.6472 24.443 77.412 25.0913 77.2888 25.4071L77.0013 26.1096C76.8432 26.5282 76.7719 26.8192 76.7874 26.9827C76.8029 27.1461 76.8425 27.2606 76.9062 27.326C76.9692 27.3856 77.0736 27.4096 77.2193 27.3978C77.3713 27.3855 77.531 27.3197 77.6984 27.2004C77.8721 27.0805 78.0551 26.9246 78.2475 26.7326C78.4399 26.5406 78.6361 26.3219 78.8362 26.0764C79.042 25.8245 79.2407 25.5644 79.4322 25.296C79.9349 24.6085 80.3006 24.0232 80.5292 23.5401C81.6767 21.1067 82.2866 19.8341 82.359 19.7224C82.5441 19.4545 82.7412 19.3122 82.9502 19.2953C83.1656 19.278 83.3546 19.2862 83.5174 19.3202C83.6796 19.3483 83.8216 19.3986 83.9434 19.4711C84.2128 19.6199 84.3068 19.8035 84.2254 20.0218C84.1504 20.2396 84.0606 20.538 83.9562 20.917C83.0581 24.2302 82.4663 26.2983 82.1806 27.1213C81.9013 27.9437 81.6514 28.605 81.4308 29.1051C81.2108 29.611 80.9435 30.1237 80.6291 30.6431C80.3209 31.162 79.9833 31.6392 79.6162 32.0746C78.7779 33.0598 77.9565 33.6171 77.1519 33.7467C76.8438 33.7951 76.5929 33.7741 76.3992 33.6839C76.0659 33.5343 75.8918 33.3807 75.8768 33.2231C75.8619 33.0655 75.9939 32.9431 76.2728 32.8559C76.5586 32.7741 76.8446 32.6275 77.1309 32.4162C77.4241 32.2102 77.7015 31.9732 77.9633 31.705C78.7295 30.9021 79.3027 30.0501 79.6831 29.149C80.0037 28.3585 80.2522 27.615 80.4286 26.9185L80.9719 24.7749C80.8076 24.994 80.6276 25.2497 80.432 25.5419L79.8278 26.4376C79.2983 27.1802 78.8511 27.7132 78.4862 28.0368C77.7915 28.6515 77.1496 28.9827 76.5606 29.0302C75.7752 29.0935 75.223 28.8233 74.9041 28.2197Z" fill="var(--fill-0, #0072FF)"/>
<path d="M73.1991 34.572V41.25H72.535V40.314C72.3267 40.632 72.05 40.875 71.7049 41.043C71.3664 41.211 70.9823 41.295 70.5526 41.295C70.0708 41.295 69.6346 41.193 69.244 40.989C68.8534 40.785 68.5474 40.5 68.3261 40.134C68.1047 39.768 67.994 39.351 67.994 38.883C67.994 38.415 68.1047 37.998 68.3261 37.632C68.5474 37.266 68.8534 36.984 69.244 36.786C69.6346 36.582 70.0708 36.48 70.5526 36.48C70.9693 36.48 71.3436 36.561 71.6756 36.723C72.0142 36.879 72.2909 37.11 72.5057 37.416V34.572H73.1991ZM70.6112 40.728C70.9693 40.728 71.2915 40.653 71.578 40.503C71.871 40.347 72.0988 40.128 72.2616 39.846C72.4308 39.564 72.5155 39.243 72.5155 38.883C72.5155 38.523 72.4308 38.202 72.2616 37.92C72.0988 37.638 71.871 37.422 71.578 37.272C71.2915 37.116 70.9693 37.038 70.6112 37.038C70.2466 37.038 69.9178 37.116 69.6249 37.272C69.3384 37.422 69.1106 37.638 68.9413 37.92C68.7785 38.202 68.6972 38.523 68.6972 38.883C68.6972 39.243 68.7785 39.564 68.9413 39.846C69.1106 40.128 69.3384 40.347 69.6249 40.503C69.9178 40.653 70.2466 40.728 70.6112 40.728Z" fill="var(--fill-0, #0072FF)"/>
<path d="M77.3273 40.728C77.6463 40.728 77.9393 40.677 78.2062 40.575C78.4796 40.467 78.7107 40.311 78.8995 40.107L79.2902 40.521C79.0623 40.773 78.7791 40.965 78.4406 41.097C78.102 41.229 77.7277 41.295 77.3175 41.295C76.7902 41.295 76.3214 41.193 75.9113 40.989C75.5011 40.779 75.1821 40.491 74.9543 40.125C74.7264 39.759 74.6125 39.345 74.6125 38.883C74.6125 38.421 74.7199 38.007 74.9347 37.641C75.1561 37.275 75.4588 36.99 75.8429 36.786C76.227 36.582 76.6632 36.48 77.1515 36.48C77.6072 36.48 78.0174 36.576 78.382 36.768C78.753 36.96 79.046 37.227 79.2609 37.569C79.4822 37.911 79.5994 38.301 79.6124 38.739L75.3937 39.495C75.5239 39.879 75.7583 40.182 76.0968 40.404C76.4419 40.62 76.852 40.728 77.3273 40.728ZM77.1515 37.029C76.7934 37.029 76.4712 37.107 76.1847 37.263C75.9048 37.413 75.6834 37.626 75.5207 37.902C75.3644 38.172 75.2863 38.484 75.2863 38.838C75.2863 38.928 75.2895 38.994 75.2961 39.036L78.9191 38.388C78.8409 37.992 78.6424 37.668 78.3234 37.416C78.0044 37.158 77.6137 37.029 77.1515 37.029Z" fill="var(--fill-0, #0072FF)"/>
<path d="M82.4006 41.295C81.984 41.295 81.5836 41.241 81.1995 41.133C80.8219 41.019 80.5256 40.878 80.3108 40.71L80.6233 40.206C80.8381 40.362 81.1083 40.491 81.4338 40.593C81.7594 40.689 82.0979 40.737 82.4495 40.737C82.9182 40.737 83.2632 40.671 83.4846 40.539C83.7125 40.401 83.8264 40.209 83.8264 39.963C83.8264 39.789 83.7645 39.654 83.6408 39.558C83.5171 39.456 83.3609 39.381 83.1721 39.333C82.9833 39.279 82.7326 39.228 82.4202 39.18C82.0035 39.108 81.6682 39.036 81.4143 38.964C81.1604 38.886 80.9423 38.757 80.76 38.577C80.5842 38.397 80.4963 38.148 80.4963 37.83C80.4963 37.434 80.6754 37.11 81.0334 36.858C81.3915 36.606 81.8896 36.48 82.5276 36.48C82.8596 36.48 83.1916 36.522 83.5237 36.606C83.8557 36.684 84.1291 36.789 84.344 36.921L84.0412 37.434C83.6181 37.164 83.1135 37.029 82.5276 37.029C82.0849 37.029 81.7496 37.101 81.5217 37.245C81.3004 37.389 81.1897 37.578 81.1897 37.812C81.1897 37.992 81.2515 38.136 81.3752 38.244C81.5055 38.352 81.665 38.433 81.8538 38.487C82.0426 38.535 82.303 38.586 82.635 38.64C83.0451 38.712 83.3739 38.784 83.6213 38.856C83.8687 38.928 84.0803 39.051 84.2561 39.225C84.4319 39.399 84.5197 39.639 84.5197 39.945C84.5197 40.359 84.3309 40.689 83.9533 40.935C83.5823 41.175 83.0647 41.295 82.4006 41.295Z" fill="var(--fill-0, #0072FF)"/>
<path d="M85.8015 36.516H86.4949V41.25H85.8015V36.516ZM86.1531 35.481C86.0099 35.481 85.8894 35.436 85.7918 35.346C85.6941 35.256 85.6453 35.148 85.6453 35.022C85.6453 34.902 85.6941 34.797 85.7918 34.707C85.8894 34.617 86.0099 34.572 86.1531 34.572C86.2963 34.572 86.4168 34.617 86.5144 34.707C86.6121 34.791 86.6609 34.893 86.6609 35.013C86.6609 35.145 86.6121 35.256 86.5144 35.346C86.4168 35.436 86.2963 35.481 86.1531 35.481Z" fill="var(--fill-0, #0072FF)"/>
<path d="M93.1799 36.516V40.674C93.1799 41.478 92.9651 42.072 92.5354 42.456C92.1122 42.846 91.471 43.041 90.6116 43.041C90.1363 43.041 89.6839 42.975 89.2542 42.843C88.831 42.717 88.486 42.54 88.219 42.312L88.5706 41.826C88.818 42.03 89.1175 42.189 89.469 42.303C89.8271 42.417 90.2014 42.474 90.5921 42.474C91.2431 42.474 91.7216 42.333 92.0276 42.051C92.3336 41.775 92.4866 41.343 92.4866 40.755V40.152C92.2717 40.452 91.9885 40.68 91.637 40.836C91.2919 40.992 90.9078 41.07 90.4846 41.07C90.0029 41.07 89.5634 40.974 89.1663 40.782C88.7757 40.584 88.4664 40.311 88.2386 39.963C88.0172 39.609 87.9065 39.21 87.9065 38.766C87.9065 38.322 88.0172 37.926 88.2386 37.578C88.4664 37.23 88.7757 36.96 89.1663 36.768C89.5569 36.576 89.9964 36.48 90.4846 36.48C90.9208 36.48 91.3147 36.561 91.6663 36.723C92.0178 36.885 92.301 37.119 92.5159 37.425V36.516H93.1799ZM90.553 40.503C90.9241 40.503 91.2594 40.431 91.5588 40.287C91.8583 40.137 92.0894 39.93 92.2522 39.666C92.4215 39.402 92.5061 39.102 92.5061 38.766C92.5061 38.43 92.4215 38.133 92.2522 37.875C92.0894 37.611 91.8583 37.407 91.5588 37.263C91.2659 37.113 90.9306 37.038 90.553 37.038C90.1819 37.038 89.8466 37.11 89.5472 37.254C89.2542 37.398 89.0231 37.602 88.8538 37.866C88.691 38.13 88.6097 38.43 88.6097 38.766C88.6097 39.102 88.691 39.402 88.8538 39.666C89.0231 39.93 89.2542 40.137 89.5472 40.287C89.8466 40.431 90.1819 40.503 90.553 40.503Z" fill="var(--fill-0, #0072FF)"/>
<path d="M97.736 36.48C98.3805 36.48 98.8916 36.654 99.2692 37.002C99.6533 37.344 99.8453 37.845 99.8453 38.505V41.25H99.152V38.568C99.152 38.076 99.0185 37.701 98.7516 37.443C98.4847 37.185 98.1038 37.056 97.609 37.056C97.0557 37.056 96.6162 37.209 96.2907 37.515C95.9717 37.815 95.8122 38.232 95.8122 38.766V41.25H95.1188V36.516H95.7829V37.389C95.9717 37.101 96.2321 36.879 96.5641 36.723C96.9027 36.561 97.2933 36.48 97.736 36.48Z" fill="var(--fill-0, #0072FF)"/>
</g>
</svg>
