<svg preserveAspectRatio="none" width="100%" height="100%" overflow="visible" style="display: block;" viewBox="0 0 17.6 17.5997" fill="none" xmlns="http://www.w3.org/2000/svg">
<path id="Shape" fill-rule="evenodd" clip-rule="evenodd" d="M17.5909 0.736593L15.0767 15.822C15.044 16.0119 14.9392 16.1592 14.7624 16.264C14.6708 16.3164 14.5693 16.3425 14.458 16.3425C14.3859 16.3425 14.3074 16.3262 14.2222 16.2934L9.77323 14.4765L7.39649 17.3738C7.27863 17.5244 7.11822 17.5997 6.91525 17.5997C6.83013 17.5997 6.75811 17.5866 6.69918 17.5604C6.57477 17.5145 6.47493 17.4376 6.39963 17.3296C6.32433 17.2215 6.28669 17.1021 6.28669 16.9711V13.5435L14.7722 3.1428L4.27333 12.2274L0.393941 10.6364C0.151682 10.5447 0.0207338 10.3647 0.00109127 10.0962C-0.0120038 9.83433 0.0927551 9.64119 0.315371 9.51678L16.6579 0.0883912C16.7561 0.0294634 16.8609 0 16.9722 0C17.1031 0 17.221 0.0360109 17.3258 0.108034C17.5418 0.265174 17.6302 0.474692 17.5909 0.736593Z" fill="var(--fill-0, white)"/>
</svg>
